<?xml version="1.0" encoding="UTF-8"?>
<!DOCTYPE svg PUBLIC "-//W3C//DTD SVG 1.1//EN" "http://www.w3.org/Graphics/SVG/1.1/DTD/svg11.dtd">
<svg xmlns="http://www.w3.org/2000/svg" version="1.1" width="500px" height="208px" style="shape-rendering:geometricPrecision; text-rendering:geometricPrecision; image-rendering:optimizeQuality; fill-rule:evenodd; clip-rule:evenodd" xmlns:xlink="http://www.w3.org/1999/xlink">
<g><path style="opacity:1" fill="#000001" d="M -0.5,-0.5 C 166.167,-0.5 332.833,-0.5 499.5,-0.5C 499.5,68.8333 499.5,138.167 499.5,207.5C 332.833,207.5 166.167,207.5 -0.5,207.5C -0.5,138.167 -0.5,68.8333 -0.5,-0.5 Z"/></g>
<g><path style="opacity:1" fill="#574499" d="M 139.5,67.5 C 139.5,67.8333 139.5,68.1667 139.5,68.5C 137.873,70.6298 136.04,72.6298 134,74.5C 132.921,77.0627 132.421,79.7294 132.5,82.5C 128.551,78.8538 124.218,75.6871 119.5,73C 103.972,69.2613 94.9724,75.2613 92.5,91C 92.7613,98.3556 95.5947,104.522 101,109.5C 109.987,118.654 119.154,127.654 128.5,136.5C 130.739,137.788 133.072,138.788 135.5,139.5C 135.5,140.167 135.833,140.5 136.5,140.5C 131.648,145.255 131.314,150.255 135.5,155.5C 128.968,155.043 122.968,152.876 117.5,149C 107.667,139.167 97.8333,129.333 88,119.5C 71.5574,101.174 71.3907,82.6744 87.5,64C 100.939,54.2063 115.272,52.873 130.5,60C 133.69,62.3644 136.69,64.8644 139.5,67.5 Z"/></g>
<g><path style="opacity:1" fill="#3d86a9" d="M 136.5,155.5 C 139.518,155.665 142.518,155.498 145.5,155C 149.5,150.667 149.5,146.333 145.5,142C 142.649,140.711 139.649,140.211 136.5,140.5C 135.833,140.5 135.5,140.167 135.5,139.5C 141.072,140.01 146.405,139.177 151.5,137C 162.667,125.833 173.833,114.667 185,103.5C 191.924,90.4531 189.091,80.2865 176.5,73C 169.482,70.5017 162.816,71.1684 156.5,75C 153.631,78.0379 150.631,80.8712 147.5,83.5C 147.817,80.4281 147.484,77.4281 146.5,74.5C 144.576,71.9385 142.242,69.9385 139.5,68.5C 139.5,68.1667 139.5,67.8333 139.5,67.5C 142.603,65.5767 145.603,63.41 148.5,61C 166.531,51.6466 182.698,54.1466 197,68.5C 206.968,83.7678 206.968,99.1011 197,114.5C 185.5,126 174,137.5 162.5,149C 154.485,154.632 145.819,156.799 136.5,155.5 Z"/></g>
<g><path style="opacity:1" fill="#f0f0f0" d="M 227.5,67.5 C 233.105,66.9081 238.439,67.7415 243.5,70C 246.321,72.1413 247.654,74.9746 247.5,78.5C 245.167,78.5 242.833,78.5 240.5,78.5C 240.863,76.0885 239.863,74.5885 237.5,74C 228.546,71.7882 224.212,75.2882 224.5,84.5C 224.533,94.3791 229.2,97.8791 238.5,95C 240.037,93.8904 240.703,92.3904 240.5,90.5C 242.833,90.5 245.167,90.5 247.5,90.5C 246.89,96.6154 243.556,100.449 237.5,102C 221.188,101.997 214.688,93.8304 218,77.5C 220.022,72.98 223.189,69.6467 227.5,67.5 Z"/></g>
<g><path style="opacity:1" fill="#f4f4f4" d="M 277.5,67.5 C 279.5,67.5 281.5,67.5 283.5,67.5C 283.334,76.8393 283.5,86.1726 284,95.5C 285.011,96.3366 286.178,96.67 287.5,96.5C 287.5,98.1667 287.5,99.8333 287.5,101.5C 283.993,102.006 280.826,101.34 278,99.5C 277.5,88.8385 277.333,78.1719 277.5,67.5 Z"/></g>
<g><path style="opacity:1" fill="#f0f0f0" d="M 349.5,76.5 C 349.539,75.2438 349.039,74.2438 348,73.5C 347.5,82.8274 347.334,92.1607 347.5,101.5C 345.833,101.5 344.167,101.5 342.5,101.5C 342.5,90.5 342.5,79.5 342.5,68.5C 345.833,68.5 349.167,68.5 352.5,68.5C 354.815,76.0873 356.981,83.754 359,91.5C 361.783,83.7061 363.949,75.7061 365.5,67.5C 369.5,67.5 373.5,67.5 377.5,67.5C 377.5,78.8333 377.5,90.1667 377.5,101.5C 375.167,101.5 372.833,101.5 370.5,101.5C 370.666,92.1607 370.5,82.8274 370,73.5C 367.664,82.5165 365.331,91.5165 363,100.5C 360.619,101.435 358.119,101.768 355.5,101.5C 353.797,93.0943 351.797,84.7609 349.5,76.5 Z"/></g>
<g><path style="opacity:1" fill="#c6c6c6" d="M 352.5,68.5 C 349.167,68.5 345.833,68.5 342.5,68.5C 342.5,79.5 342.5,90.5 342.5,101.5C 341.505,90.3456 341.172,79.0123 341.5,67.5C 345.371,67.185 349.038,67.5184 352.5,68.5 Z"/></g>
<g><path style="opacity:1" fill="#020307" d="M 132.5,82.5 C 135.177,87.1893 139.177,88.6893 144.5,87C 145.71,85.9609 146.71,84.7942 147.5,83.5C 150.631,80.8712 153.631,78.0379 156.5,75C 162.816,71.1684 169.482,70.5017 176.5,73C 189.091,80.2865 191.924,90.4531 185,103.5C 173.833,114.667 162.667,125.833 151.5,137C 146.405,139.177 141.072,140.01 135.5,139.5C 133.072,138.788 130.739,137.788 128.5,136.5C 119.154,127.654 109.987,118.654 101,109.5C 95.5947,104.522 92.7613,98.3556 92.5,91C 94.9724,75.2613 103.972,69.2613 119.5,73C 124.218,75.6871 128.551,78.8538 132.5,82.5 Z"/></g>
<g><path style="opacity:1" fill="#4d9bda" d="M 139.5,68.5 C 142.242,69.9385 144.576,71.9385 146.5,74.5C 147.484,77.4281 147.817,80.4281 147.5,83.5C 146.71,84.7942 145.71,85.9609 144.5,87C 139.177,88.6893 135.177,87.1893 132.5,82.5C 132.421,79.7294 132.921,77.0627 134,74.5C 136.04,72.6298 137.873,70.6298 139.5,68.5 Z"/></g>
<g><path style="opacity:1" fill="#f1f1f1" d="M 257.5,76.5 C 260.85,76.335 264.183,76.5017 267.5,77C 268.931,77.4652 270.097,78.2986 271,79.5C 272.429,86.7194 272.929,94.0528 272.5,101.5C 269.921,101.917 267.754,101.25 266,99.5C 262.405,101.456 258.572,101.956 254.5,101C 249.679,97.399 249.346,93.399 253.5,89C 257.571,86.8853 261.905,85.7187 266.5,85.5C 266.845,82.512 265.512,81.1787 262.5,81.5C 260.312,81.3073 258.645,82.1406 257.5,84C 255.421,84.8077 253.421,84.641 251.5,83.5C 252.833,80.5067 254.833,78.1734 257.5,76.5 Z"/></g>
<g><path style="opacity:1" fill="#f5f5f5" d="M 290.5,76.5 C 292.5,76.5 294.5,76.5 296.5,76.5C 296.351,77.552 296.517,78.552 297,79.5C 298.463,77.1147 300.629,76.1147 303.5,76.5C 306.325,76.1191 308.491,77.1191 310,79.5C 313.257,76.5715 317.091,75.7382 321.5,77C 323.049,78.214 324.215,79.714 325,81.5C 325.5,88.1583 325.666,94.825 325.5,101.5C 323.5,101.5 321.5,101.5 319.5,101.5C 319.666,95.4908 319.499,89.4908 319,83.5C 315.844,80.6012 313.178,80.9345 311,84.5C 310.501,90.1569 310.334,95.8236 310.5,101.5C 308.5,101.5 306.5,101.5 304.5,101.5C 304.666,95.1579 304.5,88.8246 304,82.5C 301.408,81.0183 299.075,81.3517 297,83.5C 296.501,89.4908 296.334,95.4908 296.5,101.5C 294.5,101.5 292.5,101.5 290.5,101.5C 290.5,93.1667 290.5,84.8333 290.5,76.5 Z"/></g>
<g><path style="opacity:1" fill="#f1f1f1" d="M 380.5,76.5 C 382.792,76.2436 384.959,76.5769 387,77.5C 388.667,82.8333 390.333,88.1667 392,93.5C 393.865,88.2385 395.531,82.9052 397,77.5C 399.041,76.5769 401.208,76.2436 403.5,76.5C 400.308,86.9097 396.808,97.243 393,107.5C 390.016,110.1 386.516,111.1 382.5,110.5C 382.5,108.833 382.5,107.167 382.5,105.5C 384.199,105.66 385.866,105.494 387.5,105C 388.097,103.938 388.43,102.772 388.5,101.5C 385.829,93.1541 383.162,84.8208 380.5,76.5 Z"/></g>
<g><path style="opacity:1" fill="#aeaeae" d="M 349.5,76.5 C 348.833,84.8333 348.167,93.1667 347.5,101.5C 347.334,92.1607 347.5,82.8274 348,73.5C 349.039,74.2438 349.539,75.2438 349.5,76.5 Z"/></g>
<g><path style="opacity:1" fill="#3d86aa" d="M 147.5,123.5 C 147.663,121.143 147.497,118.81 147,116.5C 144.595,113.6 142.095,110.933 139.5,108.5C 139.5,108.167 139.5,107.833 139.5,107.5C 148.276,99.8958 156.943,92.0624 165.5,84C 174.217,83.051 177.717,86.8844 176,95.5C 166.632,105.036 157.132,114.369 147.5,123.5 Z"/></g>
<g><path style="opacity:1" fill="#161616" d="M 262.5,90.5 C 263.833,90.5 265.167,90.5 266.5,90.5C 266.696,94.6414 264.696,96.9748 260.5,97.5C 258.603,97.2718 257.27,96.2718 256.5,94.5C 258.01,92.3105 260.01,90.9772 262.5,90.5 Z"/></g>
<g><path style="opacity:1" fill="#58459b" d="M 139.5,107.5 C 139.5,107.833 139.5,108.167 139.5,108.5C 138.086,110.811 136.253,112.811 134,114.5C 132.748,117.014 132.248,119.68 132.5,122.5C 121.885,114.05 112.385,104.383 104,93.5C 102.943,89.114 104.443,85.9473 108.5,84C 110.833,83.3333 113.167,83.3333 115.5,84C 123.368,92.0358 131.368,99.8691 139.5,107.5 Z"/></g>
<g><path style="opacity:1" fill="#c1c1c1" d="M 242.5,118.5 C 242.5,116.833 242.5,115.167 242.5,113.5C 233.833,113.5 225.167,113.5 216.5,113.5C 216.5,115.167 216.5,116.833 216.5,118.5C 215.539,116.735 215.205,114.735 215.5,112.5C 224.833,112.5 234.167,112.5 243.5,112.5C 243.795,114.735 243.461,116.735 242.5,118.5 Z"/></g>
<g><path style="opacity:1" fill="#fdfdfd" d="M 242.5,118.5 C 239.167,118.5 235.833,118.5 232.5,118.5C 232.5,127.833 232.5,137.167 232.5,146.5C 230.5,146.5 228.5,146.5 226.5,146.5C 226.5,137.167 226.5,127.833 226.5,118.5C 223.167,118.5 219.833,118.5 216.5,118.5C 216.5,116.833 216.5,115.167 216.5,113.5C 225.167,113.5 233.833,113.5 242.5,113.5C 242.5,115.167 242.5,116.833 242.5,118.5 Z"/></g>
<g><path style="opacity:1" fill="#f8f8f8" d="M 251.5,113.5 C 251.335,117.182 251.501,120.848 252,124.5C 255.257,121.572 259.091,120.738 263.5,122C 265.049,123.214 266.215,124.714 267,126.5C 267.5,133.158 267.666,139.825 267.5,146.5C 265.5,146.5 263.5,146.5 261.5,146.5C 261.666,140.491 261.499,134.491 261,128.5C 257.661,125.701 254.661,126.034 252,129.5C 251.501,135.157 251.334,140.824 251.5,146.5C 249.833,146.5 248.167,146.5 246.5,146.5C 246.5,135.5 246.5,124.5 246.5,113.5C 248.167,113.5 249.833,113.5 251.5,113.5 Z"/></g>
<g><path style="opacity:1" fill="#eaeaea" d="M 354.5,112.5 C 356.833,112.5 359.167,112.5 361.5,112.5C 361.335,116.182 361.501,119.848 362,123.5C 365.183,121.477 368.683,120.977 372.5,122C 374.049,123.214 375.215,124.714 376,126.5C 376.5,133.158 376.666,139.825 376.5,146.5C 374.5,146.5 372.5,146.5 370.5,146.5C 370.83,140.132 370.496,133.798 369.5,127.5C 366.709,125.96 364.209,126.294 362,128.5C 361.501,134.491 361.334,140.491 361.5,146.5C 359.167,146.5 356.833,146.5 354.5,146.5C 354.5,135.167 354.5,123.833 354.5,112.5 Z"/></g>
<g><path style="opacity:1" fill="#f6f6f6" d="M 383.5,112.5 C 385.5,112.5 387.5,112.5 389.5,112.5C 389.5,115.5 389.5,118.5 389.5,121.5C 391.167,121.5 392.833,121.5 394.5,121.5C 394.5,123.167 394.5,124.833 394.5,126.5C 392.833,126.5 391.167,126.5 389.5,126.5C 389.334,131.179 389.501,135.845 390,140.5C 391.356,141.38 392.856,141.714 394.5,141.5C 394.5,143.167 394.5,144.833 394.5,146.5C 391.813,146.664 389.146,146.497 386.5,146C 385.692,145.692 385.025,145.192 384.5,144.5C 383.543,138.561 383.21,132.561 383.5,126.5C 382.167,126.5 380.833,126.5 379.5,126.5C 379.5,124.833 379.5,123.167 379.5,121.5C 380.833,121.5 382.167,121.5 383.5,121.5C 383.5,118.5 383.5,115.5 383.5,112.5 Z"/></g>
<g><path style="opacity:1" fill="#4c9adb" d="M 139.5,108.5 C 142.095,110.933 144.595,113.6 147,116.5C 147.497,118.81 147.663,121.143 147.5,123.5C 144.848,127.314 141.181,128.481 136.5,127C 134.959,125.629 133.625,124.129 132.5,122.5C 132.248,119.68 132.748,117.014 134,114.5C 136.253,112.811 138.086,110.811 139.5,108.5 Z"/></g>
<g><path style="opacity:1" fill="#c8c8c8" d="M 251.5,113.5 C 249.833,113.5 248.167,113.5 246.5,113.5C 246.5,124.5 246.5,135.5 246.5,146.5C 245.505,135.346 245.172,124.012 245.5,112.5C 247.735,112.205 249.735,112.539 251.5,113.5 Z"/></g>
<g><path style="opacity:1" fill="#f4f4f4" d="M 278.5,121.5 C 291.322,119.496 297.156,124.829 296,137.5C 293.131,146.017 287.297,148.85 278.5,146C 271.862,141.983 269.696,136.15 272,128.5C 273.694,125.642 275.861,123.309 278.5,121.5 Z"/></g>
<g><path style="opacity:1" fill="#f2f2f2" d="M 343.5,123.5 C 343.435,123.938 343.601,124.272 344,124.5C 345.401,122.808 347.234,122.141 349.5,122.5C 349.5,131.167 349.5,139.833 349.5,148.5C 348.035,154.076 344.368,156.409 338.5,155.5C 332.667,156.252 328.667,153.919 326.5,148.5C 327.667,148.167 328.833,147.833 330,147.5C 332.661,148.792 335.328,150.125 338,151.5C 342.804,151.367 344.471,149.033 343,144.5C 332.657,148.343 327.157,144.677 326.5,133.5C 327.443,122.194 333.11,118.861 343.5,123.5 Z"/></g>
<g><path style="opacity:1" fill="#eeeeee" d="M 397.5,140.5 C 398.552,138.744 400.219,138.077 402.5,138.5C 404.553,141.853 407.553,143.02 411.5,142C 412.747,140.506 412.747,139.006 411.5,137.5C 406.871,136.903 402.705,135.237 399,132.5C 396.577,127.839 397.744,124.339 402.5,122C 409.789,119.732 415.123,121.899 418.5,128.5C 417.5,128.833 416.5,129.167 415.5,129.5C 412.833,128.5 410.167,127.5 407.5,126.5C 402.746,127.161 402.412,128.661 406.5,131C 410.952,130.978 414.786,132.478 418,135.5C 419.865,143.425 416.698,147.425 408.5,147.5C 403.287,147.404 399.621,145.071 397.5,140.5 Z"/></g>
<g><path style="opacity:1" fill="#f3f3f3" d="M 300.5,121.5 C 302.5,121.5 304.5,121.5 306.5,121.5C 306.334,127.509 306.501,133.509 307,139.5C 309.615,142.07 312.282,142.07 315,139.5C 315.499,133.509 315.666,127.509 315.5,121.5C 317.5,121.5 319.5,121.5 321.5,121.5C 321.5,129.833 321.5,138.167 321.5,146.5C 318.921,146.917 316.754,146.25 315,144.5C 313.352,146.028 311.352,146.695 309,146.5C 304.876,147.107 302.209,145.44 301,141.5C 300.5,134.842 300.334,128.175 300.5,121.5 Z"/></g>
<g><path style="opacity:1" fill="#0d0d0d" d="M 281.5,126.5 C 288.632,126.743 291.465,130.41 290,137.5C 285.951,142.818 281.951,142.818 278,137.5C 276.663,132.872 277.83,129.205 281.5,126.5 Z"/></g>
<g><path style="opacity:1" fill="#0c0c0c" d="M 335.5,126.5 C 343.071,126.263 345.904,129.93 344,137.5C 340.333,142.833 336.667,142.833 333,137.5C 331.946,133.345 332.78,129.678 335.5,126.5 Z"/></g>
<g><path style="opacity:1" fill="#a1a1a1" d="M 349.5,148.5 C 349.5,139.833 349.5,131.167 349.5,122.5C 347.234,122.141 345.401,122.808 344,124.5C 343.601,124.272 343.435,123.938 343.5,123.5C 345.279,121.656 347.612,120.99 350.5,121.5C 350.827,130.682 350.493,139.682 349.5,148.5 Z"/></g>
<g><path style="opacity:1" fill="#6d6d6d" d="M 402.5,138.5 C 400.219,138.077 398.552,138.744 397.5,140.5C 396.596,139.791 396.263,138.791 396.5,137.5C 398.735,137.205 400.735,137.539 402.5,138.5 Z"/></g>
<g><path style="opacity:1" fill="#4c9cda" d="M 136.5,140.5 C 139.649,140.211 142.649,140.711 145.5,142C 149.5,146.333 149.5,150.667 145.5,155C 142.518,155.498 139.518,155.665 136.5,155.5C 136.167,155.5 135.833,155.5 135.5,155.5C 131.314,150.255 131.648,145.255 136.5,140.5 Z"/></g>
</svg>
